<?xml version="1.0" standalone="no"?>
<!DOCTYPE svg PUBLIC "-//W3C//DTD SVG 1.1//EN" "http://www.w3.org/Graphics/SVG/1.1/DTD/svg11.dtd">
<svg xmlns="http://www.w3.org/2000/svg">
<metadata>Copyright (C) 2017 by original authors @ fontello.com</metadata>
<defs>
<font id="dental-icons" horiz-adv-x="1000" >
<font-face font-family="dental-icons" font-weight="400" font-stretch="normal" units-per-em="1000" ascent="850" descent="-150" />
<missing-glyph horiz-adv-x="1000" />
<glyph glyph-name="asset-5" unicode="&#xe802;" d="M534 300a22 22 0 0 0-8 1c-210 81-172 361-168 388a163 163 0 0 0 163 161 22 22 0 0 0 5 0 1175 1175 0 0 1 215-22 889 889 0 0 1 198 21 22 22 0 0 0 5 1 163 163 0 0 0 163-161c5-26 39-256-139-385a22 22 0 1 0-26 35c163 118 122 342 122 344a22 22 0 0 0 0 4 119 119 0 0 1-117 119 936 936 0 0 0-206-21 1204 1204 0 0 0-222 21 119 119 0 0 1-117-119 22 22 0 0 0 0-4c0-2-46-270 140-341a22 22 0 0 0-8-42z m313-450c-44 0-51 70-60 176-8 84-21 225-61 225-37 0-46-132-52-210-8-111-13-191-65-191-43 0-84 61-122 182a1368 1368 0 0 0-57 330 22 22 0 0 0 43 1 1323 1323 0 0 1 57-319c34-109 66-147 78-150 14 14 20 99 23 150 9 123 18 250 96 250 80 0 92-134 103-264 5-49 11-116 21-135 12 10 59 66 125 409a22 22 0 1 0 42-8c-75-393-128-446-171-446z m239 834a22 22 0 0 0-5 43c35 8 65 14 93 18a22 22 0 0 0 7-43c-27-4-57-10-90-17a22 22 0 0 0-5-1z m-673-678a22 22 0 0 0-5 44c150 29 306 81 479 161 159 73 294 153 411 245a555 555 0 0 1 99 96c32 43 45 76 39 101-11 45-75 64-190 56a22 22 0 0 0-3 44c52 3 211 14 236-89 12-52-21-104-48-138a595 595 0 0 0-107-103c-119-95-256-177-419-252-176-80-335-134-489-164a22 22 0 0 0-3-1z m-182-21a349 349 0 0 0-101 13c-50 15-70 44-77 66-13 35-5 78 23 122 76 115 203 196 326 269a22 22 0 0 0 22-38c-119-70-241-148-311-255-20-31-27-61-19-83 6-18 23-31 49-39 57-17 123-12 186-4a22 22 0 0 0 6-43 817 817 0 0 0-104-8z m233 228a22 22 0 0 0-9 2c-132 58-233 116-317 185a22 22 0 0 0 28 33c80-66 178-122 307-177a22 22 0 0 0-9-42z m769-156a22 22 0 0 0-3 44c73 10 161 28 198 79a101 101 0 0 1 16 78c-83 170-267 254-430 328-281 118-518 167-744 154-75-8-147-15-203-64-51-58-9-139 42-191a22 22 0 1 0-32-30c-64 65-114 170-42 251l2 2c68 59 150 67 230 75h1c232 14 475-36 763-157 171-78 365-166 454-352a22 22 0 0 0 2-6c7-44-1-83-24-114-46-63-141-84-227-96z m-77-3h0a1453 1453 0 0 0-207 19 22 22 0 1 0 6 43 1412 1412 0 0 1 201-18 22 22 0 0 0 0-44z" horiz-adv-x="1490" />

<glyph glyph-name="asset-1" unicode="&#xe803;" d="M176 306a16 16 0 0 0-6 1c-209 81-168 363-164 386a159 159 0 0 0 159 157 16 16 0 0 0 3 0s30-7 75-13a16 16 0 1 0-4-32c-41 6-69 11-76 13a127 127 0 0 1-125-126 17 17 0 0 0 0-3c-1-3-48-277 144-352a16 16 0 0 0-6-31z m425-2a16 16 0 0 0-9 29c168 121 127 351 126 353a16 16 0 0 0 0 3 127 127 0 0 1-124 127 934 934 0 0 0-207-21 16 16 0 0 0 0 32h4a902 902 0 0 1 197 21 16 16 0 0 0 4 0h0a159 159 0 0 0 158-157c4-23 40-256-139-384a16 16 0 0 0-10-3z m-111-454h0c-39 0-45 69-54 173-8 92-20 232-66 232h0c-43 0-52-126-59-217-8-109-14-187-61-187h0c-40 0-79 60-116 179a1377 1377 0 0 0-57 333 16 16 0 1 0 32 1 1343 1343 0 0 1 56-324c38-124 72-157 85-157h0s9 2 16 39a1079 1079 0 0 1 13 118c9 122 18 247 91 247h0c76 0 87-133 98-262 5-52 12-131 24-143 10 2 60 32 135 419a16 16 0 1 0 32-6c-77-394-131-445-169-445z m-239 529a16 16 0 0 0-16 19l19 113h-73a16 16 0 0 0-16 21l46 134-22-14a16 16 0 0 0-23 20l60 155a16 16 0 0 0 30-12l-43-111 20 12a16 16 0 0 0 23-19l-53-154h70a16 16 0 0 0 16-19l-7-39 54 99-58-13a16 16 0 0 0-17 25l86 122-34 30a16 16 0 0 0 1 25l63 50a16 16 0 0 0 20-25l-48-38 30-27a16 16 0 0 0 2-22l-69-100 52 13a16 16 0 0 0 18-24l-117-213a16 16 0 0 0-14-8z" horiz-adv-x="756" />

<glyph glyph-name="asset-3" unicode="&#xe804;" d="M635 283a15 15 0 0 0-9 27c107 76 81 223 81 225a14 14 0 0 0 0 3 78 78 0 0 1-77 77 614 614 0 0 0-132-13h-3a791 791 0 0 0-145 15 78 78 0 0 1-77-78 15 15 0 0 0 0-2c0-2-30-177 91-224a15 15 0 0 0-11-28c-138 54-112 238-109 256a107 107 0 0 0 107 105 17 17 0 0 0 3 0 771 771 0 0 1 142-15 581 581 0 0 1 129 14 16 16 0 0 0 4 0 107 107 0 0 0 107-106c3-18 25-169-93-253a15 15 0 0 0-8-3z m-72-295h0c-30 0-34 43-40 116-4 51-13 147-38 147h0c-24 0-31-86-34-137-6-73-10-126-44-126h0c-65 0-113 219-117 337a15 15 0 1 0 30 1 867 867 0 0 1 36-209c23-77 44-96 50-99 9 11 13 65 15 98 6 81 12 165 64 165h0c53 0 60-89 68-174 2-32 6-75 12-88 9 7 39 47 83 267a15 15 0 1 0 29-6c-51-257-86-292-114-292z m-63-138a500 500 0 1 0 500 500v-214a15 15 0 1 0-30 0v214a470 470 0 1 1-112-305 15 15 0 1 0 23-19 500 500 0 0 0-381-176z m485 259a15 15 0 0 0-13 8l-90 173a15 15 0 0 0 26 14l77-148 78 148a15 15 0 0 0 25-14l-90-173a15 15 0 0 0-13-8z" horiz-adv-x="1090" />

<glyph glyph-name="asset-6" unicode="&#xe805;" d="M210 207a22 22 0 0 0-8 2c-246 95-200 425-196 454a189 189 0 0 0 189 187 22 22 0 0 0 4 0 1393 1393 0 0 1 256-26 1060 1060 0 0 1 235 25 22 22 0 0 0 5 1 189 189 0 0 0 189-188 22 22 0 1 0-43 0 146 146 0 0 1-143 145 1100 1100 0 0 0-243-26 1418 1418 0 0 0-263 26 146 146 0 0 1-143-145 21 21 0 0 0 0-4c-1-3-55-323 169-410a22 22 0 0 0-8-41z m370-321c-47 0-57 59-67 121-13 83-27 142-76 142-45 0-55-52-65-132-9-65-17-131-73-131-96 0-198 134-208 390a22 22 0 0 0 43 2c6-140 38-223 65-269 29-50 66-80 100-80 18 0 24 49 30 93 9 72 21 170 108 170 90 0 107-103 119-178 4-26 13-85 24-85 31 0 59 5 90 59a22 22 0 1 0 37-21c-39-71-84-81-127-81z m-85 758c-150 0-315 69-325 73a22 22 0 0 0 17 40c3-2 305-129 443-38a22 22 0 1 0 23-36c-43-29-99-39-158-39z m799-794c-91 0-238 23-333 155a22 22 0 1 0 35 25c127-176 368-132 371-131a22 22 0 0 0 4 0c141 0 216 123 216 356s-75 357-216 357a22 22 0 0 0-4 0c-3 0-291 49-369-152a22 22 0 0 0-40 16c86 224 387 183 414 178 224-1 258-250 258-399 0-345-160-399-257-400a473 473 0 0 0-79-5z m-338 101a22 22 0 0 0-5 0c-238 46-285 102-285 182 0 45 54 53 111 63 75 12 127 24 127 67 0 39-46 48-118 57-59 8-120 15-120 68 0 46 34 92 93 126 65 38 155 61 263 65a22 22 0 1 0 1-43c-216-9-314-92-314-148 0-15 48-21 83-26 65-8 155-19 155-100 0-83-94-98-163-109-26-4-70-12-75-21 0-36 0-91 251-139a22 22 0 0 0-4-43z" horiz-adv-x="1630" />

<glyph glyph-name="asset-7" unicode="&#xe806;" d="M177 305a16 16 0 0 0-6 1c-209 81-169 363-166 387a159 159 0 0 0 159 157 16 16 0 0 0 4 0 1194 1194 0 0 1 219-22 908 908 0 0 1 201 22 16 16 0 0 0 4 0 159 159 0 0 0 159-157c4-24 41-256-138-385a16 16 0 0 0-19 26c167 121 125 352 125 354a17 17 0 0 0 0 3 127 127 0 0 1-125 127 937 937 0 0 0-207-22 1210 1210 0 0 0-224 22 127 127 0 0 1-125-127 16 16 0 0 0 0-3 512 512 0 0 1 0-150c16-103 65-171 145-202a16 16 0 0 0-6-31z m317-455c-40 0-46 69-55 173-9 92-21 232-67 232-43 0-52-126-59-217-7-109-13-188-60-188-88 0-167 311-175 512a16 16 0 0 0 32 2 1344 1344 0 0 1 57-325c39-123 73-156 86-156 0 0 9 2 16 39a1083 1083 0 0 1 12 118c9 122 17 248 91 248 75 0 87-133 99-262 5-52 12-131 24-143 10 2 60 32 134 420a16 16 0 1 0 32-6c-76-396-129-447-167-447z" horiz-adv-x="757" />

<glyph glyph-name="asset-8" unicode="&#xe807;" d="M768 376a14 14 0 0 0-12 7l-61 106a14 14 0 0 0 5 18 63 63 0 0 1 28 49 14 14 0 0 0 13 13l122 0a13 13 0 0 0 10-4 14 14 0 0 0 4-10 228 228 0 0 0-102-177 14 14 0 0 0-7-2z m-43 116l47-82a201 201 0 0 1 76 132l-95-1a90 90 0 0 0-28-49z m-200-116a14 14 0 0 0-8 2 228 228 0 0 0-101 177 14 14 0 0 0 3 10 13 13 0 0 0 10 4l78 0a14 14 0 0 0 0-28h0l-62 1a201 201 0 0 1 75-132l47 82a91 91 0 0 0-18 22 89 89 0 0 0-12 40 14 14 0 1 0 28 1 63 63 0 0 1 28-48 14 14 0 0 0 4-18l-60-106a14 14 0 0 0-12-7z m156 271a14 14 0 0 0-7 1 64 64 0 0 1-55 0 14 14 0 0 0-19 6l-61 105a14 14 0 0 0 5 19 228 228 0 0 0 204 0 14 14 0 0 0 5-19l-61-105a14 14 0 0 0-11-7z m-111 113l48-82a92 92 0 0 0 57 0l47 82a204 204 0 0 1-152 0z m76-253a68 68 0 1 0 68 68 68 68 0 0 0-68-68z m0 108a40 40 0 1 1 41-40 40 40 0 0 1-41 40z m0-322a278 278 0 1 0 270 348 14 14 0 0 0-27-7 251 251 0 1 1 8-68c0 2 0 4 0 6a14 14 0 0 0 27 0c0-2 0-4 0-6a278 278 0 0 0-278-272z m-381-53a14 14 0 0 0-5 1c-132 50-108 227-105 243a102 102 0 0 0 102 101 14 14 0 0 0 5 0c0 0 42-16 112-16a14 14 0 0 0 0-27c-66 0-109 12-119 16a75 75 0 0 1-73-75 14 14 0 0 0 0-2c0-2-28-170 88-215a14 14 0 0 0-5-26z m264 13m-68-296c-27 0-31 44-37 111-5 53-13 141-38 141-24 0-29-82-33-132-5-69-8-120-41-120-27 0-52 39-76 114a859 859 0 0 0-37 208 14 14 0 0 0 28 1 830 830 0 0 1 35-201c22-68 42-92 49-94 9 9 13 62 15 94 5 77 11 157 60 157 50 0 58-84 65-166 3-30 6-70 12-83 6 6 18 27 36 95 15 58 30 134 43 200a14 14 0 1 0 27-5c-47-245-72-320-108-320z m305-107h-752a14 14 0 0 0-14 14v831a14 14 0 0 0 14 14h398a14 14 0 0 0 0-28h-385v-804h725v394a14 14 0 0 0 27 0v-407a14 14 0 0 0-13-14z" horiz-adv-x="924" />

<glyph glyph-name="asset-9" unicode="&#xe808;" d="M530 321a14 14 0 0 0-8 25c81 58 61 169 60 170a13 13 0 0 0 0 3 57 57 0 0 1-55 57 477 477 0 0 0-104-10 609 609 0 0 0-112 11 57 57 0 0 1-56-57 14 14 0 0 0 0-2 249 249 0 0 1 0-73c7-49 30-82 68-96a14 14 0 0 0-10-26c-107 42-88 184-86 199a85 85 0 0 0 85 83 15 15 0 0 0 3-1 588 588 0 0 1 108-11 445 445 0 0 1 99 10 14 14 0 0 0 3 1 85 85 0 0 0 85-84c2-14 19-131-72-196a14 14 0 0 0-8-3z m-55-225h0c-25 0-28 34-33 91-3 36-10 110-28 110h0c-16 0-21-69-23-103-5-57-8-98-36-98h0c-35 0-56 70-63 93a691 691 0 0 0-29 167 14 14 0 1 0 27 1c5-112 44-222 63-233 6 10 9 47 11 72 4 63 9 129 51 129h0c42 0 48-69 54-136 2-22 4-51 8-63 9 10 30 48 60 201a14 14 0 1 0 27-6c-39-198-66-225-89-225z m-69-246a14 14 0 0 0-5 1 875 875 0 0 0-200 121c-131 107-201 234-201 368v342c0 41 36 74 80 74h0s7 0 17 0c50 0 180 9 301 92a14 14 0 0 0 15 0c121-83 251-92 301-92 11 0 17 0 17 0h1c43 0 79-33 79-74v-342c0-134-70-261-201-368a875 875 0 0 0-200-121 14 14 0 0 0-4-1z m-327 879c-28 0-52-22-52-47v-342c0-284 333-441 379-461 46 20 378 177 378 461v342c0 26-23 47-52 47-1 0-8-1-18-1-51 0-184 9-308 92-125-83-257-92-309-92-10 0-16 1-18 1z m327-797a14 14 0 0 0-7 1c-96 51-321 191-321 407v230a14 14 0 1 0 27 0v-231c0-196 205-328 301-378 95 50 300 182 300 378v313a743 743 0 0 0-300 81 723 723 0 0 0-216-72 14 14 0 1 0-5 27 694 694 0 0 1 214 72 14 14 0 0 0 13 0 714 714 0 0 1 309-81 14 14 0 0 0 13-14v-326c0-216-225-355-322-406a14 14 0 0 0-6-1z" horiz-adv-x="811" />

<glyph glyph-name="asset-11" unicode="&#xe809;" d="M601 304a16 16 0 0 0-9 29c168 120 127 351 126 353a16 16 0 0 0 0 3 127 127 0 0 1-124 127 934 934 0 0 0-207-21 1209 1209 0 0 0-224 23 126 126 0 0 1-125-126 17 17 0 0 0 0-3c-1-3-48-277 144-352a16 16 0 0 0-12-30c-209 81-168 363-164 386a159 159 0 0 0 158 157 19 19 0 0 0 4 0 1193 1193 0 0 1 219-23 906 906 0 0 1 201 21 16 16 0 0 0 4 0 159 159 0 0 0 158-157c5-23 40-256-139-384a16 16 0 0 0-10-3z m-111-454h0c-39 0-45 69-54 173-8 92-20 232-66 232h0c-43 0-52-126-59-217-8-109-14-187-61-187h0c-40 0-79 60-116 179a1377 1377 0 0 0-57 333 16 16 0 1 0 32 1 1343 1343 0 0 1 56-324c38-124 72-157 85-157h0s9 2 16 39a1079 1079 0 0 1 13 118c9 122 18 247 91 247h0c76 0 87-133 98-262 5-52 12-131 24-143 10 2 60 32 135 419a16 16 0 1 0 32-6c-77-394-131-445-169-445z m11 967s-178-100-208-139-132-100-116-15 5 129-34 89-13 47 0 58 45 11 45 11 227-39 313-4z" horiz-adv-x="756" />

<glyph glyph-name="asset-10" unicode="&#xe80a;" d="M814 437a17 17 0 0 0-10 31c67 47 50 140 50 141a16 16 0 0 0 0 3 44 44 0 0 1-42 44 416 416 0 0 0-90-9 530 530 0 0 0-97 10 44 44 0 0 1-42-44 17 17 0 0 0 0-3c0-1-19-111 55-140a17 17 0 0 0-12-31c-42 16-69 53-77 105a242 242 0 0 0 0 71 78 78 0 0 0 78 76 19 19 0 0 0 4-1 500 500 0 0 1 91-9 373 373 0 0 1 84 8 16 16 0 0 0 4 1 78 78 0 0 0 77-77c3-14 16-116-64-173a17 17 0 0 0-9-3z m-48-194h0c-26 0-28 33-33 83-2 25-7 84-18 90-10-6-14-58-15-84-4-49-7-89-36-89h0c-53 0-82 164-85 229a17 17 0 1 0 34 1c3-84 30-168 47-191a439 439 0 0 1 6 53c4 56 9 115 49 115h0c41 0 47-62 52-121 1-14 2-30 4-42 9 17 24 59 44 161a17 17 0 1 0 33-7c-36-183-61-198-82-198z m-48-160a17 17 0 0 0-8 3l-318 183a17 17 0 0 0-8 15v366a17 17 0 0 0 8 15l318 183a17 17 0 0 0 17 0l317-183a17 17 0 0 0 8-15v-367a17 17 0 0 0-8-14l-317-183a17 17 0 0 0-9-3z m-300 210l300-173 301 173v347l-301 174-300-174z m-258-340a17 17 0 0 0-8 2l-144 83a17 17 0 0 0-8 15v165a17 17 0 0 0 8 15l144 83a17 17 0 0 0 17 0l143-83a17 17 0 0 0 8-15v-165a17 17 0 0 0-8-15l-143-83a17 17 0 0 0-9-2z m-126 110l126-74 127 74v146l-127 72-126-72z m401-213a17 17 0 0 0-9 2l-75 43a17 17 0 0 0-8 15v86a17 17 0 0 0 8 15l75 43a17 17 0 0 0 17 0l75-43a17 17 0 0 0 8-15v-86a17 17 0 0 0-8-15l-75-43a17 17 0 0 0-8-2z m-58 70l58-34 57 34v66l-57 34-58-34z m-74 281a17 17 0 0 0-9 31l97 65a17 17 0 1 0 19-28l-97-65a17 17 0 0 0-10-3z m878 415a17 17 0 0 0-9 2l-86 50a17 17 0 0 0-9 14v101a17 17 0 0 0 9 14l86 50a17 17 0 0 0 17 0l87-50a17 17 0 0 0 8-14v-100a17 17 0 0 0-8-15l-87-50a17 17 0 0 0-8-2z m-70 76l70-40 69 40v81l-69 40-70-40z m-76-66a17 17 0 0 0-9 31l59 39a17 17 0 0 0 19-28l-59-39a17 17 0 0 0-10-3z m-675-647a17 17 0 0 0-12 5l-57 57a17 17 0 1 0 24 24l56-57a17 17 0 0 0-12-29z" horiz-adv-x="1284" />

<glyph glyph-name="asset-12" unicode="&#xe80b;" d="M177 305a16 16 0 0 0-6 1c-209 81-169 363-166 387a159 159 0 0 0 159 157 16 16 0 0 0 4 0 1194 1194 0 0 1 219-22 908 908 0 0 1 201 22 16 16 0 0 0 4 0 159 159 0 0 0 159-157c3-18 26-162-49-287a326 326 0 0 0-89-98 16 16 0 1 0-19 26 294 294 0 0 1 80 88c72 120 45 265 45 266a17 17 0 0 0 0 3 127 127 0 0 1-125 127 937 937 0 0 0-207-22 1210 1210 0 0 0-224 22 127 127 0 0 1-125-127 16 16 0 0 0 0-3c-1-2-47-278 145-352a16 16 0 0 0-5-31z m317-455c-40 0-46 69-55 173-9 92-21 232-67 232-43 0-52-126-59-217-7-109-13-188-60-188-88 0-167 311-175 512a16 16 0 0 0 32 2 1344 1344 0 0 1 57-325c39-123 73-156 86-156 0 0 9 2 16 39a1081 1081 0 0 1 12 118c9 122 18 248 91 248 76 0 88-133 99-262 5-52 12-131 24-143 10 2 60 32 134 420a16 16 0 1 0 32-6c-76-396-129-447-167-447z m-215 496h-2c-15 1-23 16-33 34-5 8-14 23-19 27-58-5-75-17-90-28a102 102 0 0 0-37-19 16 16 0 1 0-8 32 71 71 0 0 1 26 13c18 13 40 28 108 34 22 2 36-22 48-43 1-2 3-6 5-9 2 4 4 9 5 13 7 18 15 39 34 33a165 165 0 0 0 42-22 196 196 0 0 1 32-18c3 4 6 10 8 14 9 16 16 30 30 30h0c17 0 24-17 31-34 1-2 3-6 4-9 8 3 16 7 24 11a492 492 0 0 0 50 22 146 146 0 0 1 16 29c11 23 20 41 36 43 19 1 24-19 31-45 1-5 3-12 5-17a153 153 0 0 0 42-10 16 16 0 0 0-14-30 130 130 0 0 1-39 9c-15 1-19 17-26 40l-1 6c-2-4-4-7-5-10-10-21-20-40-34-45a454 454 0 0 1-47-21 349 349 0 0 0-36-16c-20-8-29 15-36 31l-1 3-1-2c-9-16-21-39-41-32a213 213 0 0 0-45 24 174 174 0 0 1-25 14c-1-3-2-7-3-10-8-20-16-42-34-42z m-74-177a42 42 0 1 0 42 42 42 42 0 0 0-42-42z m0 52a10 10 0 1 1 10-10 10 10 0 0 1-10 10z m334-99a52 52 0 1 0 52 52 52 52 0 0 0-52-52z m0 71a20 20 0 1 1 20-19 20 20 0 0 1-20 19z" horiz-adv-x="757" />

<glyph glyph-name="asset-13" unicode="&#xe80c;" d="M1262-150h-1245a17 17 0 0 0-17 17v966a17 17 0 0 0 17 17h1245a17 17 0 0 0 17-17v-966a17 17 0 0 0-17-17z m-1227 34h1210v932h-1210z m595 2a51 51 0 0 0-44 29 43 43 0 0 1-38 21 39 39 0 0 1-14-2c-21-9-43-5-57 8a54 54 0 0 0-13 40 42 42 0 0 1-36 42 48 48 0 0 0-36 78 42 42 0 0 1-10 53 48 48 0 0 0 7 85 42 42 0 0 1 19 51 48 48 0 0 0 47 71h3a43 43 0 0 1 41 35c3 28 23 46 47 46a59 59 0 0 0 31-10 40 40 0 0 1 20-5 42 42 0 0 1 34 15 53 53 0 0 0 41 22 51 51 0 0 0 44-29 43 43 0 0 1 38-21h0a39 39 0 0 1 14 3c21 8 43 5 57-9a54 54 0 0 0 13-40 42 42 0 0 1 36-42 48 48 0 0 0 37-78 42 42 0 0 1 9-53 48 48 0 0 0-7-85 42 42 0 0 1-18-51 48 48 0 0 0-47-71h-3a42 42 0 0 1-41-35c-4-28-23-46-48-46a59 59 0 0 0-30 9 40 40 0 0 1-21 6 42 42 0 0 1-33-15 53 53 0 0 0-42-22z m-82 85a77 77 0 0 0 68-39c4-7 9-12 14-12a20 20 0 0 1 14 9 77 77 0 0 0 60 29 75 75 0 0 0 39-11 25 25 0 0 1 13-4c9 0 12 10 13 16a77 77 0 0 0 75 65h3a18 18 0 0 1 16 5 19 19 0 0 1-1 18 77 77 0 0 0 35 94 15 15 0 0 1 2 28 77 77 0 0 0-18 98 19 19 0 0 1 3 17 19 19 0 0 1-15 9 77 77 0 0 0-65 77 21 21 0 0 1-4 15c-4 4-11 4-19 1a73 73 0 0 0-27-6h0a78 78 0 0 0-68 40c-4 7-9 11-14 11a20 20 0 0 1-14-9 77 77 0 0 0-60-28 74 74 0 0 0-39 10 25 25 0 0 1-13 5c-9 0-12-11-13-17a77 77 0 0 0-75-64h-3a18 18 0 0 1-16-6 19 19 0 0 1 0-17 77 77 0 0 0-34-95 15 15 0 0 1-2-27 77 77 0 0 0 18-99 19 19 0 0 1-3-17 19 19 0 0 1 15-9 77 77 0 0 0 65-77 21 21 0 0 1 4-15c4-3 11-4 19 0a73 73 0 0 0 27 5z m103-9a213 213 0 1 0 213 214 213 213 0 0 0-213-214z m0 392a179 179 0 1 1 179-178 179 179 0 0 1-179 178z m46-320h-92a17 17 0 0 0-17 17v62h-61a17 17 0 0 0-18 17v91a17 17 0 0 0 18 18h61v61a17 17 0 0 0 17 17h92a17 17 0 0 0 17-17v-61h62a17 17 0 0 0 17-18v-91a17 17 0 0 0-17-17h-62v-62a17 17 0 0 0-17-17z m-74 34h57v62a17 17 0 0 0 17 17h61v57h-61a17 17 0 0 0-17 17v62h-57v-62a17 17 0 0 0-18-17h-61v-57h61a17 17 0 0 0 18-17z m327 536h-620a17 17 0 0 0 0 34h620a17 17 0 0 0 0-34z m163-96h-947a17 17 0 0 0 0 35h947a17 17 0 0 0 0-35z m-24-584h-220a17 17 0 1 0 0 34h206a117 117 0 0 0 96 87v598a117 117 0 0 0-98 99h-866a117 117 0 0 0-99-99v-597a117 117 0 0 0 97-87h238a17 17 0 0 0 0-35h-253a17 17 0 0 0-17 15 83 83 0 0 1-82 73 17 17 0 0 0-17 18v629a17 17 0 0 0 17 17 83 83 0 0 1 83 83 17 17 0 0 0 17 17h897a17 17 0 0 0 18-17 83 83 0 0 1 82-83 17 17 0 0 0 18-17v-630a17 17 0 0 0-18-17 83 83 0 0 1-82-73 17 17 0 0 0-17-15z" horiz-adv-x="1279" />

<glyph glyph-name="asset-14" unicode="&#xe80d;" d="M624-150c-260 0-448 425-448 712 0 266 162 288 329 288 19 0 38 0 57 0 41 0 84 0 124 0 20 0 39 0 58 0 166 0 328-22 328-288 0-287-188-712-448-712z m-119 925c-158 0-254-15-254-213 0-278 181-637 373-637s373 359 373 637c0 198-96 213-253 213-19 0-38 0-57 0-41 0-85 0-126 0-19 0-38 0-56 0z m968-925c-260 0-448 425-448 712 0 266 162 288 329 288 18 0 37 0 57 0 40 0 84 0 124 0 20 0 39 0 57 0 166 0 329-22 329-288 0-287-188-712-448-712z m-119 925c-158 0-254-15-254-213 0-278 181-637 373-637s373 359 373 637c0 198-96 213-254 213-18 0-37 0-56 0-41 0-85 0-126 0-19 0-38 0-56 0z m979-925c-260 0-449 425-449 712 0 266 163 288 329 288 19 0 38 0 58 0 40 0 83 0 124 0 19 0 38 0 57 0 166 0 329-22 329-288 0-287-188-712-448-712z m-120 925c-157 0-253-15-253-213 0-278 181-637 373-637s372 359 372 637c0 198-95 213-253 213-18 0-37 0-56 0-41 0-85 0-126 0-20 0-38 0-57 0z m235-338a38 38 0 0 0-5 76c283 44 465 91 466 92a38 38 0 0 0 20-73c-2 0-187-49-475-94a38 38 0 0 0-6-1z m-854-76a38 38 0 0 0 0 76c201 4 410 19 619 44a38 38 0 1 0 9-76c-212-25-423-40-626-45z m-231 0h-1a6408 6408 0 0 0-667 50 38 38 0 0 0 10 75 6331 6331 0 0 1 658-49 38 38 0 0 0 0-76z m-898 83a38 38 0 0 0-6 0c-263 44-429 87-431 87a38 38 0 0 0 19 73c2 0 165-43 424-85a38 38 0 0 0-6-75z m201-212h-170a69 69 0 0 0-69 68v244a69 69 0 0 0 69 69h170a69 69 0 0 0 68-69v-244a69 69 0 0 0-68-68z m-163 75h156v230h-156z m1060-106h-170a69 69 0 0 0-68 69v243a69 69 0 0 0 68 69h170a69 69 0 0 0 69-69v-244a69 69 0 0 0-69-68z m-163 76h157v229h-157z m1018-45h-170a69 69 0 0 0-69 68v244a69 69 0 0 0 69 69h170a69 69 0 0 0 68-69v-244a69 69 0 0 0-68-68z m-164 75h157v230h-157z m-1789 175m235-34" horiz-adv-x="2957" />

<glyph glyph-name="asset-15" unicode="&#xe80e;" d="M351 259a15 15 0 0 0-6 1c-188 73-152 327-149 348a143 143 0 0 0 143 142 15 15 0 0 0 3-1 1074 1074 0 0 1 197-19c25 0 116 8 151 11l10 1a15 15 0 0 0 3-29l-10-1c-60-6-131-12-154-12a1088 1088 0 0 0-201 20 114 114 0 0 1-113-113 14 14 0 0 0 0-3c0-2-42-250 131-317a15 15 0 0 0-5-28z m506 367a15 15 0 0 0-13 10c-13 40-59 84-104 84a15 15 0 0 0 0 30c47 0 111-40 131-105a15 15 0 0 0-14-19z m-123-367a15 15 0 0 0-9 27c105 75 119 198 118 265a15 15 0 0 0 29 1c1-73-14-207-130-290a15 15 0 0 0-8-3z m-99-409c-35 0-41 62-49 155-8 84-19 209-60 209-39 0-47-113-53-195-7-98-12-169-54-169-79 0-150 279-158 461a15 15 0 0 0 29 1 1209 1209 0 0 1 52-292c35-111 65-141 77-141 0 0 8 3 14 36a973 973 0 0 1 11 106c8 110 16 223 82 223 68 0 79-120 89-236 4-47 11-118 22-128 8 1 53 29 120 377a15 15 0 1 0 29-5c-68-356-116-402-151-402z m87 535h0a15 15 0 0 0-15 12l-32 173-173 33a15 15 0 0 0 0 28l173 32 32 174a15 15 0 0 0 29 0l32-174 173-32a15 15 0 0 0 0-29l-173-32-32-173a15 15 0 0 0-14-12z m-138 232l106-20a15 15 0 0 0 12-11l20-106 19 106a15 15 0 0 0 12 11l106 20-106 20a15 15 0 0 0-12 11l-19 106-20-106a15 15 0 0 0-12-11z" horiz-adv-x="953" />

<glyph glyph-name="asset-16" unicode="&#xe80f;" d="M161 359a17 17 0 0 0-6 1 217 217 0 0 0-99 75c-76 104-54 255-51 273a144 144 0 0 0 144 142 17 17 0 0 0 4 0 1064 1064 0 0 1 195-20 806 806 0 0 1 179 19 17 17 0 0 0 5 1 144 144 0 0 0 144-142c4-22 36-230-125-346a17 17 0 1 0-19 27c149 107 111 312 111 314a17 17 0 0 0 0 3 111 111 0 0 1-109 111 840 840 0 0 0-186-20 1083 1083 0 0 0-200 20 111 111 0 0 1-109-111 16 16 0 0 0 0-3c0-1-26-152 44-248a185 185 0 0 1 84-64 17 17 0 0 0-6-32z m283-407a17 17 0 0 0 0 34c2 0 48 4 119 373a17 17 0 0 0 32-6c-22-117-44-209-66-275-28-87-55-126-85-126z m-215 0c-38 0-73 55-107 162a1234 1234 0 0 0-52 298 17 17 0 0 0 33 1 1198 1198 0 0 1 51-289c32-101 62-138 75-138a17 17 0 0 0 0-33z m211-102h-202a17 17 0 0 0-17 18l42 519a17 17 0 0 0 17 16h105a17 17 0 0 0 17-15l55-520a17 17 0 0 0-17-18z m-184 33h166l-52 486h-75z m-27 362a17 17 0 0 0-7 32l198 84a17 17 0 0 0 13-31l-198-84a17 17 0 0 0-6-1z m0-84a17 17 0 0 0-7 32l198 84a17 17 0 0 0 13-30l-198-84a17 17 0 0 0-6-2z m-14-90a17 17 0 0 0-7 32l226 96a17 17 0 0 0 13-30l-226-96a17 17 0 0 0-6-2z m98-41a17 17 0 0 0-6 32l140 60a17 17 0 0 0 13-31l-140-59a17 17 0 0 0-7-2z" horiz-adv-x="681" />

<glyph glyph-name="asset-17" unicode="&#xe810;" d="M250 276a17 17 0 0 0-6 1c-104 40-111 167-100 230a99 99 0 0 0 98 97 17 17 0 0 0 4 0 680 680 0 0 1 124-13 513 513 0 0 1 114 12 17 17 0 0 0 4 1 99 99 0 0 0 99-97c3-17 22-152-83-228a17 17 0 1 0-19 27c93 67 69 195 69 196a17 17 0 0 0 0 3 66 66 0 0 1-64 66 551 551 0 0 0-120-13 706 706 0 0 0-130 13 66 66 0 0 1-64-66 16 16 0 0 0 0-2c0-2-25-155 80-195a17 17 0 0 0-6-32z m182-262c-30 0-33 42-39 106-4 42-12 127-32 127-18 0-23-80-26-118-5-67-8-115-42-115-10 0-40 0-74 108a801 801 0 0 0-34 194 17 17 0 0 0 33 1c5-128 51-254 73-268 6 12 9 54 11 82 5 74 11 150 59 150 51 0 58-80 65-158 2-24 5-56 9-71 10 12 34 59 68 231a17 17 0 1 0 32-6c-44-231-76-263-103-263z m767-164h-1182a17 17 0 0 0-17 16v968a17 17 0 0 0 17 16h1182a17 17 0 0 0 16-16v-968a17 17 0 0 0-16-16z m-1166 33h1149v934h-1149z m1087 688h-248a17 17 0 0 0 0 33h248a17 17 0 0 0 0-33z m0-90h-408a17 17 0 1 0 0 33h407a17 17 0 0 0 0-33z m0-90h-408a17 17 0 0 0 0 33h407a17 17 0 0 0 0-33z m0-90h-408a17 17 0 1 0 0 33h407a17 17 0 0 0 0-33z m0-90h-408a17 17 0 1 0 0 32h407a17 17 0 0 0 0-32z m-367-299a102 102 0 1 0 102 102 102 102 0 0 0-102-102z m0 171a69 69 0 1 1 69-69 69 69 0 0 1-69 69z m-86-86h-85a17 17 0 0 0-14 8l-143 213a17 17 0 0 0 27 18l138-206h77a17 17 0 0 0 0-33z m86 562a102 102 0 1 0 102 102 102 102 0 0 0-102-102z m0 171a69 69 0 1 1 69-69 69 69 0 0 1-69 69z m-424-293a17 17 0 0 0-11 29l253 208a17 17 0 0 0 11 3h85a17 17 0 0 0 0-33h-79l-249-203a16 16 0 0 0-10-4z m-16-103a16 16 0 0 0-10 4l-66 57a17 17 0 0 0-4 21l24 40-24 47a17 17 0 0 0-1 12l17 65a17 17 0 1 0 32-9l-16-58 26-50a17 17 0 0 0-1-16l-21-36 55-49a17 17 0 0 0-11-28z" horiz-adv-x="1215" />

<glyph glyph-name="asset-18" unicode="&#xe811;" d="M527 95a20 20 0 0 0-9 2l-159 76a20 20 0 0 0-11 21 442 442 0 0 0 36 113 258 258 0 0 0 38 58 20 20 0 0 0 29-26 218 218 0 0 1-32-49 404 404 0 0 1-30-88l138-66 143 66c-8 32-31 110-78 150a20 20 0 0 0 25 30c72-61 94-183 94-188a20 20 0 0 0-11-21l-165-76a20 20 0 0 0-8-2z m0 258c-54 0-96 59-112 113a20 20 0 1 0 37 11c13-41 44-84 75-84 38 0 77 64 79 114a20 20 0 1 0 39-2 200 200 0 0 0-34-97c-23-35-53-55-84-55z m-114 97a20 20 0 0 0-18 13 179 179 0 0 0-8 54 143 143 0 0 0 286 10 20 20 0 0 0-2-10c-16-32-74-40-91-42a20 20 0 0 0-21 24c-43-28-106-47-144-49z m117 170a104 104 0 0 1-104-103 147 147 0 0 1 2-27c39 7 96 28 125 53a43 43 0 0 1 11 14 20 20 0 0 0 38-7c0-9 0-17-1-25q0-3 0-6a99 99 0 0 1 31 12 104 104 0 0 1-102 89z m896-770h-1307a119 119 0 0 0-119 119v56a20 20 0 0 0 20 19h1505a20 20 0 0 0 19-19v-56a119 119 0 0 0-118-119z m-1387 155v-36a80 80 0 0 1 80-80h1307a80 80 0 0 1 79 80v36z m833-78h-199a70 70 0 0 0-70 69v29a20 20 0 0 0 20 19h298a20 20 0 0 0 20-19v-29a70 70 0 0 0-69-69z m-229 78v-9a30 30 0 0 1 30-30h198a30 30 0 0 1 31 30v9z m760 0a20 20 0 0 0-20 20v706a80 80 0 0 1-80 80h-1062a80 80 0 0 1-79-80v-706a20 20 0 0 0-39 0v706a119 119 0 0 0 118 119h1062a119 119 0 0 0 119-119v-706a20 20 0 0 0-19-20z m-76 0h-1109a20 20 0 0 0-20 20v726a20 20 0 0 0 20 19h1109a20 20 0 0 0 19-19v-726a20 20 0 0 0-19-20z m-1089 39h1069v687h-1070z m986 309h-398a20 20 0 0 0 0 39h398a20 20 0 0 0 0-39z m0-87h-398a20 20 0 1 0 0 39h398a20 20 0 0 0 0-39z m0-102h-398a20 20 0 1 0 0 39h398a20 20 0 0 0 0-39z" horiz-adv-x="1544" />

<glyph glyph-name="asset-19" unicode="&#xe812;" d="M770-150h-702a68 68 0 0 0-68 68v864a68 68 0 0 0 68 68h513a14 14 0 0 0 10-4l243-243a14 14 0 1 0-20-20l-239 240h-507a40 40 0 0 1-40-41v-864a40 40 0 0 1 40-40h702a40 40 0 0 1 40 40v617a14 14 0 1 0 28 0v-617a68 68 0 0 0-68-68z m54 729h-189a68 68 0 0 0-68 68v189a14 14 0 0 0 24 10l243-243a14 14 0 0 0-10-24z m-229 224v-156a40 40 0 0 1 40-40h156z m54-871h-95a14 14 0 0 0-14 14v68h-68a14 14 0 0 0-14 14v94a14 14 0 0 0 14 14h68v68a14 14 0 0 0 14 14h95a14 14 0 0 0 14-14v-68h68a14 14 0 0 0 13-14v-94a14 14 0 0 0-13-14h-68v-68a14 14 0 0 0-14-14z m-81 27h67v69a14 14 0 0 0 14 13h68v68h-68a14 14 0 0 0-14 13v68h-67v-68a14 14 0 0 0-14-13h-68v-68h68a14 14 0 0 0 14-13z m163 526h-529a14 14 0 0 0 0 28h529a14 14 0 0 0 0-28z m0-105h-624a14 14 0 1 0 0 28h624a14 14 0 0 0 0-28z m0-101h-624a14 14 0 1 0 0 27h624a14 14 0 1 0 0-27z" horiz-adv-x="838" />

<glyph glyph-name="asset-20" unicode="&#xe813;" d="M262-150a36 36 0 0 0-15 3c-71 33-128 360-133 444 0 7-13 19-25 31-35 36-95 96-88 224 7 132 39 285 223 287h3c58 0 143-17 188-49 63-45 106-76 106-77a17 17 0 1 0-20-27c-1 0-43 32-106 77-38 27-117 43-171 42-123-1-180-78-190-255-6-113 43-162 79-198 19-19 34-34 35-54 3-59 22-165 44-251 34-130 62-162 70-163l1 0c19 16 33 96 45 167 23 138 47 280 132 267 41-7 63-49 65-128a17 17 0 0 0-16-17h-1a17 17 0 0 0-17 17c-1 40-9 90-36 94-52 8-76-134-94-238-17-102-29-166-57-188a35 35 0 0 0-22-8z m218 24a43 43 0 0 0-14 3 37 37 0 0 0-24 37c0 8 5 38 14 100 5 28 9 58 12 80a17 17 0 0 0 34-5c-3-22-7-52-12-80-6-39-13-88-13-95a10 10 0 0 1 1-5c5-4 41 5 83 57 27 33 42 107 57 178 13 65 26 132 50 177a307 307 0 0 0 47 64c27 29 48 53 56 148 15 210-43 264-134 280-101 18-234-44-235-45a17 17 0 0 0-15 31c6 3 144 67 255 47 130-22 177-114 163-316-9-106-35-135-65-168a275 275 0 0 1-43-58c-21-39-34-104-47-167-16-78-31-153-63-193-36-43-77-70-107-70z m210 674m-486-127h0l-4 0c-59 4-101 73-96 158 5 83 56 148 114 145a80 80 0 0 0 45-18 17 17 0 0 0 0-27c-25-19-42-58-45-102-3-47 12-91 38-111a17 17 0 0 0 0-27 84 84 0 0 0-52-18z m10 269c-38 0-72-51-76-113-4-64 26-119 64-122a43 43 0 0 1 15 2c-24 30-36 75-33 123 2 43 17 82 40 109a41 41 0 0 1-8 1z m31-254a17 17 0 0 0-10 4c-35 27-54 81-51 140 3 53 25 101 58 126a17 17 0 0 0 21 0c35-27 54-81 51-140-4-54-25-101-58-126a17 17 0 0 0-11-4z m7 233c-19-21-32-54-34-91-3-41 8-79 27-102 20 22 33 55 35 92 2 41-9 79-28 102z" horiz-adv-x="807" />

<glyph glyph-name="asset-27" unicode="&#xe814;" d="M386-60a16 16 0 0 0-11 4l-280 281a16 16 0 0 0 0 22l434 434a16 16 0 0 0 22 0l77-77a16 16 0 0 0-22-22l-66 66-413-412 259-259 412 413-102 102a16 16 0 0 0 22 22l113-113a16 16 0 0 0 0-22l-434-434a16 16 0 0 0-11-5z m-145 27a16 16 0 0 0-11 5l-108 108a16 16 0 0 0 0 22l59 59a16 16 0 0 0 22 0l108-108a16 16 0 0 0 0-22l-59-59a16 16 0 0 0-11-5z m-86 124l86-86 37 37-86 86z m-139-241a16 16 0 0 0-11 26l171 171a16 16 0 1 0 22-22l-171-170a16 16 0 0 0-11-5z m542 488a16 16 0 0 0-11 5l-54 54a16 16 0 0 0 0 22l313 314a16 16 0 0 0 22 0l55-55a16 16 0 0 0 0-22l-314-313a16 16 0 0 0-11-5z m-32 70l32-32 292 291-33 33z m459 131a16 16 0 0 0-11 4l-281 281a16 16 0 0 0 22 22l280-281a16 16 0 0 0-11-26z m-320-320a16 16 0 0 0-11 5l-280 280a16 16 0 1 0 22 22l280-280a16 16 0 0 0-11-27z m-219-219a16 16 0 0 0-11 5l-68 67a16 16 0 1 0 22 22l68-67a16 16 0 0 0-11-27z m54 55a16 16 0 0 0-11 4l-67 68a16 16 0 1 0 22 22l67-68a16 16 0 0 0-11-26z m55 55a16 16 0 0 0-11 4l-67 68a16 16 0 1 0 22 22l67-68a16 16 0 0 0-11-26z m55 54a16 16 0 0 0-11 5l-68 68a16 16 0 0 0 22 22l68-68a16 16 0 0 0-11-27z m110 110a16 16 0 0 0-11 5l-68 67a16 16 0 0 0 22 22l68-67a16 16 0 0 0-11-27z" horiz-adv-x="1000" />

<glyph glyph-name="asset-25" unicode="&#xe815;" d="M177 305a16 16 0 0 0-6 1c-209 81-169 363-166 387a159 159 0 0 0 159 157 16 16 0 0 0 4 0 1194 1194 0 0 1 219-22 908 908 0 0 1 201 22 16 16 0 0 0 4 0 159 159 0 0 0 159-157c4-24 41-256-138-385a16 16 0 1 0-19 26c167 121 125 352 125 354a17 17 0 0 0 0 3 127 127 0 0 1-125 127 937 937 0 0 0-207-22 1210 1210 0 0 0-224 22 127 127 0 0 1-125-127 16 16 0 0 0 0-3 512 512 0 0 1 0-150c16-103 65-171 145-202a16 16 0 0 0-6-31z m317-455c-40 0-46 69-55 173-9 92-21 232-67 232-43 0-52-126-59-217-7-109-13-188-60-188-88 0-167 311-175 512a16 16 0 0 0 32 2 1344 1344 0 0 1 57-325c39-123 73-156 86-156 0 0 9 2 16 39a1083 1083 0 0 1 12 118c9 122 17 248 91 248 75 0 87-133 99-262 5-52 12-131 24-143 10 2 60 32 134 420a16 16 0 1 0 32-6c-76-396-129-447-167-447z m-290 977q-1-8-1-15a184 184 0 0 1 368 0q0 8-1 17l-183-17z" horiz-adv-x="757" />

<glyph glyph-name="asset-26" unicode="&#xe816;" d="M326 305a16 16 0 0 0-6 1c-209 81-170 363-166 387a159 159 0 0 0 159 157 16 16 0 0 0 3 0 1194 1194 0 0 1 220-22 908 908 0 0 1 201 22 16 16 0 0 0 4 0 159 159 0 0 0 159-157c4-24 40-256-139-385a16 16 0 1 0-19 26c168 121 126 352 126 354a17 17 0 0 0 0 3 127 127 0 0 1-125 127 937 937 0 0 0-208-22 1210 1210 0 0 0-224 22 127 127 0 0 1-124-127 16 16 0 0 0 0-3 512 512 0 0 1 0-150c16-103 65-171 145-202a16 16 0 0 0-6-31z m317-455c-40 0-46 69-56 173-8 92-21 232-67 232-43 0-51-126-58-217-8-109-13-188-60-188-88 0-167 311-176 512a16 16 0 0 0 33 2 1344 1344 0 0 1 57-325c39-123 73-156 86-156 0 0 8 2 16 39a1083 1083 0 0 1 12 118c8 122 17 248 91 248 75 0 87-133 99-262 5-52 12-131 24-143 10 2 60 32 134 420a16 16 0 1 0 32-6c-76-396-129-447-167-447z m78 128a16 16 0 0 0-15 23c7 15 170 378 332 378a16 16 0 0 0 0-32c-118 0-258-259-303-359a16 16 0 0 0-14-10z m-407 0a16 16 0 0 0-16 11c-59 160-134 246-186 289-56 47-99 56-99 56a16 16 0 0 0 7 32c7-2 188-41 309-366a16 16 0 0 0-15-22z m604 73a49 49 0 1 0 50 50 49 49 0 0 0-50-50z m0 67a17 17 0 1 1 17-17 17 17 0 0 1-17 17z m-838 2a49 49 0 1 0 50 49 49 49 0 0 0-50-49z m0 66a17 17 0 1 1 17-17 17 17 0 0 1-17 17z m118-270a66 66 0 1 0 66 66 66 66 0 0 0-66-66z m0 100a34 34 0 1 1 33-34 34 34 0 0 1-33 34z m840 124a73 73 0 1 0 73 74 74 74 0 0 0-73-74z m0 115a41 41 0 1 1 41-41 41 41 0 0 1-41 41z" horiz-adv-x="1111" />
</font>
</defs>
</svg>
